<svg xmlns="http://www.w3.org/2000/svg" height="24px" viewBox="0 -960 960 960" width="24px" fill="#e3e3e3"><path d="M607.5-372.5Q660-425 660-500t-52.5-127.5Q555-680 480-680t-127.5 52.5Q300-575 300-500t52.5 127.5Q405-320 480-320t127.5-52.5Zm-200.41-54.59q-30.07-30.06-30.07-72.91 0-42.85 30.07-72.91 30.06-30.07 72.91-30.07 42.85 0 72.91 30.07 30.07 30.06 30.07 72.91 0 42.85-30.07 72.91-30.06 30.07-72.91 30.07-42.85 0-72.91-30.07ZM209.34-276.48Q87.54-360.37 32.59-500q54.95-139.63 176.75-223.52Q331.13-807.41 480-807.41t270.66 83.89Q872.46-639.63 927.41-500q-54.95 139.63-176.75 223.52Q628.87-192.59 480-192.59t-270.66-83.89Z"/></svg>